<?xml version="1.0" encoding="UTF-8"?>
<svg version="1.1" xmlns="http://www.w3.org/2000/svg" width="100" height="100">
<path d="M0 0 C1.69576172 -0.03867188 1.69576172 -0.03867188 3.42578125 -0.078125 C6.6875 0.25 6.6875 0.25 9.2109375 1.78515625 C12.43119989 3.68988558 14.32931935 3.38120865 18 2.9375 C19.06863281 2.81761719 20.13726562 2.69773437 21.23828125 2.57421875 C22.04652344 2.46722656 22.85476562 2.36023438 23.6875 2.25 C23.18146008 4.41874252 22.68766187 6.24967627 21.6875 8.25 C23.0075 8.58 24.3275 8.91 25.6875 9.25 C25.5625 10.9375 25.5625 10.9375 24.6875 13.25 C23.69878906 13.96929687 22.71007812 14.68859375 21.69140625 15.4296875 C18.9788157 17.62519048 18.72018353 18.10300621 17.91015625 21.74609375 C17.85730469 23.04675781 17.80445312 24.34742188 17.75 25.6875 C16.71966928 38.72035872 10.46281324 49.55013173 0.6875 58.25 C-2.49852135 60.63564321 -5.73995725 62.5046356 -9.3125 64.25 C-10.08464844 64.6625 -10.85679688 65.075 -11.65234375 65.5 C-22.19186937 70.29523441 -37.17860104 70.21506528 -48 66.3125 C-49.45581978 65.66469503 -50.89993549 64.98737644 -52.3125 64.25 C-52.9725 63.92 -53.6325 63.59 -54.3125 63.25 C-54.3125 62.26 -54.3125 61.27 -54.3125 60.25 C-53.00925781 59.95996094 -53.00925781 59.95996094 -51.6796875 59.6640625 C-50.52726562 59.40367188 -49.37484375 59.14328125 -48.1875 58.875 C-47.05054688 58.61976562 -45.91359375 58.36453125 -44.7421875 58.1015625 C-41.52851712 57.30363523 -38.43683966 56.34209441 -35.3125 55.25 C-35.3125 54.59 -35.3125 53.93 -35.3125 53.25 C-36.04984375 53.15332031 -36.7871875 53.05664062 -37.546875 52.95703125 C-40.68040503 52.15594518 -42.16402575 51.07507151 -44.5625 48.9375 C-45.24828125 48.34324219 -45.9340625 47.74898437 -46.640625 47.13671875 C-49.20840023 44.2389724 -49.3125 42.0460404 -49.3125 38.25 C-50.59975907 36.54749607 -51.93381719 34.87935241 -53.3125 33.25 C-54.7908226 30.29335481 -54.37282783 27.50770263 -54.3125 24.25 C-53.3225 24.25 -52.3325 24.25 -51.3125 24.25 C-51.80105469 23.56164062 -52.28960937 22.87328125 -52.79296875 22.1640625 C-54.58840887 18.72087914 -54.6826798 16.48510955 -54.625 12.625 C-54.62113281 11.49835937 -54.61726563 10.37171875 -54.61328125 9.2109375 C-54.3125 6.25 -54.3125 6.25 -52.3125 3.25 C-48.88129277 3.81940292 -47.5378051 4.81233539 -45.3125 7.4375 C-37.83627377 15.20066028 -27.61316284 18.16795113 -17.3125 20.25 C-17.35890625 19.66992188 -17.4053125 19.08984375 -17.453125 18.4921875 C-17.71509557 12.82239594 -17.15272146 9.71296007 -13.3125 5.25 C-8.65047906 1.14298155 -6.18836986 0.08410016 0 0 Z M-9.3125 5.78125 C-12.3391858 8.75911829 -14.12134317 10.95115763 -14.75 15.22265625 C-14.75 17.9348554 -14.62436973 20.55702967 -14.3125 23.25 C-26.71165477 21.91009134 -36.89115626 18.91074138 -46.47265625 10.703125 C-48.3554069 9.04689844 -48.3554069 9.04689844 -51.3125 8.25 C-51.70883405 14.98767887 -51.27768533 18.81038501 -46.75 24.0625 C-45.36627179 25.46229382 -45.36627179 25.46229382 -43.3125 25.25 C-43.3125 26.24 -43.3125 27.23 -43.3125 28.25 C-45.9525 28.25 -48.5925 28.25 -51.3125 28.25 C-50.23123578 33.41604015 -48.34634091 35.42300255 -44.1640625 38.26953125 C-42.22631731 39.29563683 -40.45388605 39.81134603 -38.3125 40.25 C-38.3125 40.91 -38.3125 41.57 -38.3125 42.25 C-41.2825 42.745 -41.2825 42.745 -44.3125 43.25 C-43.06156259 47.14180528 -40.65174001 48.55634162 -37.1328125 50.43359375 C-34.89473693 51.43736584 -32.74396414 51.95527707 -30.3125 52.25 C-30.3125 53.24 -30.3125 54.23 -30.3125 55.25 C-40.68607631 60.62129841 -40.68607631 60.62129841 -46.3125 62.25 C-38.937475 67.16668333 -28.92947495 66.74221267 -20.5078125 65.12890625 C-7.96966035 61.68014802 2.65078888 53.73610206 9.44140625 42.6171875 C13.54760932 34.81668887 15.13634542 27.81238886 15.31640625 19 C15.72667662 15.95968065 16.29332633 15.07897087 18.6875 13.25 C17.3675 12.92 16.0475 12.59 14.6875 12.25 C15.3475 10.6 16.0075 8.95 16.6875 7.25 C15.615 7.146875 14.5425 7.04375 13.4375 6.9375 C9.64797143 6.2427531 8.59891778 5.50400086 5.6875 3.25 C0.06315667 1.62518971 -4.58301156 2.16023541 -9.3125 5.78125 Z " fill="#000000" transform="translate(64.3125,15.75)"/>
<path d="M0 0 C0.66 0 1.32 0 2 0 C0.90813099 7.77956673 -4.61227841 13.12287717 -10.5625 17.875 C-18.90443735 24 -18.90443735 24 -24 24 C-24 23.34 -24 22.68 -24 22 C-23.27554688 21.62488281 -22.55109375 21.24976562 -21.8046875 20.86328125 C-12.44211046 15.90735714 -6.9117035 11.43053953 -1.515625 2.23046875 C-1.01546875 1.49441406 -0.5153125 0.75835937 0 0 Z " fill="#000000" transform="translate(71,53)"/>
<path d="M0 0 C0.96808594 -0.01417969 1.93617187 -0.02835938 2.93359375 -0.04296875 C5.5625 0.1875 5.5625 0.1875 8.5625 2.1875 C8.2325 3.1775 7.9025 4.1675 7.5625 5.1875 C6.5725 4.5275 5.5825 3.8675 4.5625 3.1875 C-0.40114462 2.5554254 -4.9423914 2.86744395 -9.4375 5.1875 C-7.1793956 0.18741168 -5.35085226 0.03553023 0 0 Z " fill="#000000" transform="translate(64.4375,20.8125)"/>
<path d="M0 0 C1.98 0 3.96 0 6 0 C6 0.66 6 1.32 6 2 C4.02 2 2.04 2 0 2 C0 1.34 0 0.68 0 0 Z " fill="#000000" transform="translate(36,77)"/>
<path d="M0 0 C0.99 0.33 1.98 0.66 3 1 C2.67 1.99 2.34 2.98 2 4 C1.34 4 0.68 4 0 4 C0 2.68 0 1.36 0 0 Z " fill="#000000" transform="translate(52,28)"/>
<path d="M0 0 C0.66 0 1.32 0 2 0 C2 0.66 2 1.32 2 2 C1.34 2 0.68 2 0 2 C0 1.34 0 0.68 0 0 Z " fill="#000000" transform="translate(52,33)"/>
<path d="M0 0 C2 1 2 1 2 1 Z " fill="#000000" transform="translate(32,78)"/>
</svg>
